<?xml version="1.0" encoding="utf-8"?>
<!-- Generator: Adobe Illustrator 25.0.0, SVG Export Plug-In . SVG Version: 6.00 Build 0)  -->
<svg version="1.1" id="katman_1" xmlns="http://www.w3.org/2000/svg" xmlns:xlink="http://www.w3.org/1999/xlink" x="0px" y="0px"
	 viewBox="0 0 560 400" style="enable-background:new 0 0 560 400;" xml:space="preserve">
<style type="text/css">
	.st0{fill-rule:evenodd;clip-rule:evenodd;fill:#CFB87C;}
	.st1{fill-rule:evenodd;clip-rule:evenodd;}
	.st2{fill:#FFFFFF;}
</style>
<g transform="matrix(2.52832 0 0 -2.52832 -1056.67 1583.43)">
	<path class="st0" d="M522.4,603.8l-1.3-0.4c-13.7-4.3-20.2-12.7-21.7-14.8c-0.5-0.5-4.2-6.9-6-8.6c-4.3-0.5-15.6-3.4-21-9.9
		c-3.1,0.1-8,0-8,0c-2-0.1-3.7-1.4-4.4-3.3c-0.1-0.4-0.3-0.9-0.3-1.6c0-1.2,0.4-2.7,2-4.2c1-1,2.6-2,4.4-2.9
		c-0.7-2.6-1.1-6.1-1.1-9.3c0-1.4,0.1-2.7,0.2-3.9c-0.8-0.4-1.5-0.8-2-1.1c-1.2-0.8-3.7-3-5.5-6c-1.1-1.9-1.6-3.4-1.8-7.1
		c0-0.6-0.1-2.5-0.5-3.3c-0.5-0.9-2.3-3.4-3.2-4.8l-1-1.5c-0.7-1-1.1-2.5-1.7-4.4l-0.2-0.7c-0.2-0.5-0.8-2-1-2.4
		c-0.8-1.2-1.1-2.6-1.1-4c0-1.5,0.3-3,0.6-4.4c0.9-3.7,4.6-9.5,7.7-14.2l0.4-0.6l-0.1,0.1c0.8-1.5,2-2.4,3.4-2.8
		c2.1-0.5,3.7,0.5,4.5,1l0.4,0.2c2.5,1.5,3.9,3.7,4.7,4.9c0,0,0.1,0.2,0.2,0.3c0.3,0.2,0.8,0.6,0.8,0.6c1.6,1.1,2.6,1.9,3.2,2.7
		c2.6,3.1,3.8,7.8,4,10l0.2,1.8c0.5,4.7,0.6,6.6,0.6,7.7c0,0.4,0,0.7-0.1,0.9c0,0,0-0.4,0-0.4c0,0.4,0.3,1.5,0.5,2.2
		c1.4-0.3,3.2-1,3.7-1.3c1.7-1,6.5-3.3,13.7-3.3c7.9,0,12.2,1.1,13.4,1.4c1.6,0.5,4.7,1.5,5.9,2.1l-0.1-0.1l0.2,0.1
		c0.8,0.4,2,0.9,3.1,1.8c4.1,0.1,7.3,0.1,9.6,0.1c-1.4-1.5-2.7-3.5-3.6-5.9c-0.9-2.5-1.4-6-1.7-10.3c-0.1-1.9-0.2-3.3-0.2-4.4
		c0-2.5,0.4-3.3,1.5-4.3l1.6-1.5l9,1.6c0,0-0.2,0-0.2,0l1.3,0l3.1,0.1c1.9,0.2,4.7,1,6.8,2.2c2.3,1.4,4.3,3.9,4.8,4.5
		c0.5,0.5,2.7,2.2,3.5,2.7c0.1,0,0.9,0.5,0.9,0.5l2.6,1.4c0,0,4.8,3.5,6.6,5.4c0.6,0.6,1.4,1.6,2.2,2.5c0.4-0.5,0.9-1.1,1.4-1.6
		l0.3-0.4c2-2.3,4.5-2.5,6.1-1.9l0.4,0.1l0.3,0.2c1.3,0.7,4.3,2.4,5.5,3.2c0.2,0.1,0.9,0.2,1.2,0.3h0c1.9,0,3.7,1.1,4.6,2.1
		c-0.1-0.1,0.2,0.2,0.2,0.2c5.5,5.1,15.3,14.5,19.5,20.7c2,2.9,3.2,5.3,3.9,9c1,5.4,0.9,6.7,0.3,11.6l-0.1,1
		c-0.9,8-8.6,17.1-9.9,18.1l-0.2,0.2c-1.5,1.3-5.5,4.7-13.4,7.2c-3.8,1.2-8.5,1.4-10.6,1.4c0,0,0,0-0.1,0c-0.4,0.5-1.1,1.5-1.5,2.2
		c-2,3.4-5.5,6.9-10.2,10.4l-0.1,0.1c0,0-0.2,0.2-0.2,0.2c-1.5,1.2-6.2,4.7-15.6,6.6C535.1,608.2,526.8,605.4,522.4,603.8"/>
	<path class="st1" d="M538.2,602.3c-7.9,0-13-2.2-15.7-3.1c-7.2-2.3-12.1-5.7-15.3-8.6h33.4l6.4-8.8l-1.7-11.4h-11.3l1.4,9.2h-26.2
		l-4.2-28.4h8.6l1.5,10.1h-3.5l1.4,9.2h15.2l-2.8-19.2h5.7l1.5,10.1h11.4l-1.9-12.6l-9-8.5h-9.4l-1.2-8.1h22.4l5.7,38.6h15.2
		l-1.4-9.3h-3.5l-4.7-32l-8.7-8.4h-12.7c-2.6-1.3-5-3.5-6.3-7.6c-1.6-5.3-1.6-14.4-1.6-14.4s5.8,0.9,6.7,1.1c0.8,0.2,3.1,0,4.6,0.2
		c1.5,0.2,3.7,0.8,5.1,1.6c1.4,0.9,3,2.7,3.7,3.5c0.7,0.9,3.9,3.2,4.5,3.6c0.6,0.4,2.7,1.2,3.4,1.7c0.7,0.5,4.6,3.4,5.9,4.8
		c1.3,1.4,3.7,4.3,4.4,5.4c1.2,1.8,2.5,0.3,2.6-0.3c0.5-1.6,2.6-3.8,3.4-4.6c0.8-0.9,1.4-0.7,1.4-0.7s4.3,2.4,5.2,3
		c0.9,0.7,2.9,0.9,3.5,0.9c0.6,0,1.3,0.5,1.6,0.8c0.3,0.3,14.2,12.9,19.2,20.3c1.6,2.4,2.7,4.3,3.2,7.3c0.9,5.3,0.8,6.1,0.2,11.3
		c-0.7,6.4-7.3,14.4-8.2,15.2c-0.9,0.8-4.4,4.2-12.2,6.6c-3.7,1.2-8.9,1.2-9.6,1.1c-0.7-0.1-2.3,0.8-2.7,1.1
		c-0.4,0.4-1.7,2.1-2.3,3.2c-2.7,4.5-8.1,8.4-9.2,9.2c-1,0.8-5,4.2-14.1,6C543.7,602,540.8,602.3,538.2,602.3L538.2,602.3z
		 M496.9,576.9c-3.8-0.6-16.9-3.7-21.9-10.6c-0.3-0.4-1.4-0.6-2-0.6c-0.5,0-7.9,0-8.2,0c-0.3,0-1.2-0.4,0-1.5c1.1-1,3.7-2.6,5.9-3.4
		c0.8-0.3,0.7-1.6,0.2-2.3c-1.4-2.4-2.1-11.5-1-14.7c0.2-0.4-0.1-1.9-0.7-2.1c-0.9-0.3-2.8-1.2-3.6-1.7c-0.8-0.5-2.8-2.3-4.2-4.6
		c-0.7-1.3-1.1-2-1.2-5c-0.1-1.8-0.2-3.8-1.1-5.3c-0.9-1.5-3.9-5.7-4.4-6.5c-0.5-0.8-1.1-3.3-1.4-4c-0.2-0.8-1.1-2.7-1.5-3.4
		c-0.7-1.1-0.2-3.7,0.2-5c1-4,7.4-13.2,7.6-13.7c0.6-1.1,1-0.6,2.1,0.1c2.5,1.5,3.4,4,4.1,4.7c0.7,0.6,3.2,2.3,3.7,2.9
		c1.9,2.3,2.9,6.1,3,7.6c0.1,1.5,0.9,8.6,0.8,9.5c-0.1,0.9,0.6,4.3,1.4,5.2c0.7,0.9,2.2,1.9,3,1.8c2-0.2,5.3-1.5,6.4-2.1
		c2.2-1.3,6.1-2.7,11.4-2.7c6.4,0,10.5,0.8,12.2,1.3c2,0.6,4.4,1.4,5.1,1.8c0.2,0.1,1.1,0.4,1.9,0.9l-4.5,5.9l1.6,10.8h-12l-7.2,8.6
		L496.9,576.9L496.9,576.9z"/>
	<g>
		<path class="st2" d="M581.3,547c-1.2-1.9-2.9-1.9-2.9-1.9c-3.8-0.2-4,3.6-4,3.6c0.2,8.2,9.5,13.3,12.8,15c0,0,1.2,0.7,0.6-0.4
			c-3.1-5.4-4.5-9.4-4.9-11.3C582.8,552.1,582.1,548.2,581.3,547"/>
		<path class="st2" d="M581.3,547c-1.2-1.9-2.9-1.9-2.9-1.9c-3.8-0.2-4,3.6-4,3.6c0.2,8.2,9.5,13.3,12.8,15c0,0,1.2,0.7,0.6-0.4
			c-3.1-5.4-4.5-9.4-4.9-11.3C582.8,552.1,582.1,548.2,581.3,547"/>
	</g>
</g>
</svg>
